name ../IE_Laxity/ie_30.mot
datacolumns  10
datarows 40
range   7.00000000 7.39000000
cursor 1.0 1.0 0.0
keys m_key
wrap
enforce_loops no
enforce_constraints no
calc_derivatives -1.000000
event_color 0.000000 0.000000 0.000000
endheader
            time femur_r_force_vx femur_r_force_vy femur_r_force_vz femur_r_force_px femur_r_force_py femur_r_force_pz femur_r_torque_x femur_r_torque_y femur_r_torque_z 
      7.00000000       0.00000000       0.00000000       0.00000000      -0.03798529      -0.50443412       0.00000000      -2.24641563      -3.89090601       0.00000000 
      7.01000000       0.00000000       0.00000000       0.00000000      -0.03798529      -0.50443412       0.00000000      -2.25016694      -3.89740346       0.00000000 
      7.02000000       0.00000000       0.00000000       0.00000000      -0.03798529      -0.50443412       0.00000000      -2.25389337      -3.90385782       0.00000000 
      7.03000000       0.00000000       0.00000000       0.00000000      -0.03798529      -0.50443412       0.00000000      -2.25759483      -3.91026895       0.00000000 
      7.04000000       0.00000000       0.00000000       0.00000000      -0.03798529      -0.50443412       0.00000000      -2.26127124      -3.91663668       0.00000000 
      7.05000000       0.00000000       0.00000000       0.00000000      -0.03798529      -0.50443412       0.00000000      -2.26492251      -3.92296086       0.00000000 
      7.06000000       0.00000000       0.00000000       0.00000000      -0.03798529      -0.50443412       0.00000000      -2.26854853      -3.92924132       0.00000000 
      7.07000000       0.00000000       0.00000000       0.00000000      -0.03798529      -0.50443412       0.00000000      -2.27214923      -3.93547791       0.00000000 
      7.08000000       0.00000000       0.00000000       0.00000000      -0.03798529      -0.50443412       0.00000000      -2.27572451      -3.94167048       0.00000000 
      7.09000000       0.00000000       0.00000000       0.00000000      -0.03798529      -0.50443412       0.00000000      -2.27927429      -3.94781887       0.00000000 
      7.10000000       0.00000000       0.00000000       0.00000000      -0.03798529      -0.50443412       0.00000000      -2.28279847      -3.95392293       0.00000000 
      7.11000000       0.00000000       0.00000000       0.00000000      -0.03798529      -0.50443412       0.00000000      -2.28629697      -3.95998251       0.00000000 
      7.12000000       0.00000000       0.00000000       0.00000000      -0.03798529      -0.50443412       0.00000000      -2.28976969      -3.96599745       0.00000000 
      7.13000000       0.00000000       0.00000000       0.00000000      -0.03798529      -0.50443412       0.00000000      -2.29321657      -3.97196761       0.00000000 
      7.14000000       0.00000000       0.00000000       0.00000000      -0.03798529      -0.50443412       0.00000000      -2.29663750      -3.97789283       0.00000000 
      7.15000000       0.00000000       0.00000000       0.00000000      -0.03798529      -0.50443412       0.00000000      -2.30003240      -3.98377298       0.00000000 
      7.16000000       0.00000000       0.00000000       0.00000000      -0.03798529      -0.50443412       0.00000000      -2.30340120      -3.98960791       0.00000000 
      7.17000000       0.00000000       0.00000000       0.00000000      -0.03798529      -0.50443412       0.00000000      -2.30674380      -3.99539746       0.00000000 
      7.18000000       0.00000000       0.00000000       0.00000000      -0.03798529      -0.50443412       0.00000000      -2.31006012      -4.00114150       0.00000000 
      7.19000000       0.00000000       0.00000000       0.00000000      -0.03798529      -0.50443412       0.00000000      -2.31335008      -4.00683988       0.00000000 
      7.20000000       0.00000000       0.00000000       0.00000000      -0.03798529      -0.50443412       0.00000000      -2.31661360      -4.01249246       0.00000000 
      7.21000000       0.00000000       0.00000000       0.00000000      -0.03798529      -0.50443412       0.00000000      -2.31985060      -4.01809910       0.00000000 
      7.22000000       0.00000000       0.00000000       0.00000000      -0.03798529      -0.50443412       0.00000000      -2.32306099      -4.02365967       0.00000000 
      7.23000000       0.00000000       0.00000000       0.00000000      -0.03798529      -0.50443412       0.00000000      -2.32624470      -4.02917401       0.00000000 
      7.24000000       0.00000000       0.00000000       0.00000000      -0.03798529      -0.50443412       0.00000000      -2.32940165      -4.03464201       0.00000000 
      7.25000000       0.00000000       0.00000000       0.00000000      -0.03798529      -0.50443412       0.00000000      -2.33253175      -4.04006351       0.00000000 
      7.26000000       0.00000000       0.00000000       0.00000000      -0.03798529      -0.50443412       0.00000000      -2.33563494      -4.04543839       0.00000000 
      7.27000000       0.00000000       0.00000000       0.00000000      -0.03798529      -0.50443412       0.00000000      -2.33871113      -4.05076651       0.00000000 
      7.28000000       0.00000000       0.00000000       0.00000000      -0.03798529      -0.50443412       0.00000000      -2.34176025      -4.05604773       0.00000000 
      7.29000000       0.00000000       0.00000000       0.00000000      -0.03798529      -0.50443412       0.00000000      -2.34478222      -4.06128194       0.00000000 
      7.30000000       0.00000000       0.00000000       0.00000000      -0.03798529      -0.50443412       0.00000000      -2.34777697      -4.06646899       0.00000000 
      7.31000000       0.00000000       0.00000000       0.00000000      -0.03798529      -0.50443412       0.00000000      -2.35074441      -4.07160876       0.00000000 
      7.32000000       0.00000000       0.00000000       0.00000000      -0.03798529      -0.50443412       0.00000000      -2.35368449      -4.07670112       0.00000000 
      7.33000000       0.00000000       0.00000000       0.00000000      -0.03798529      -0.50443412       0.00000000      -2.35659712      -4.08174595       0.00000000 
      7.34000000       0.00000000       0.00000000       0.00000000      -0.03798529      -0.50443412       0.00000000      -2.35948224      -4.08674311       0.00000000 
      7.35000000       0.00000000       0.00000000       0.00000000      -0.03798529      -0.50443412       0.00000000      -2.36233976      -4.09169249       0.00000000 
      7.36000000       0.00000000       0.00000000       0.00000000      -0.03798529      -0.50443412       0.00000000      -2.36516963      -4.09659396       0.00000000 
      7.37000000       0.00000000       0.00000000       0.00000000      -0.03798529      -0.50443412       0.00000000      -2.36797176      -4.10144740       0.00000000 
      7.38000000       0.00000000       0.00000000       0.00000000      -0.03798529      -0.50443412       0.00000000      -2.37074609      -4.10625269       0.00000000 
      7.39000000       0.00000000       0.00000000       0.00000000      -0.03798529      -0.50443412       0.00000000      -2.37349256      -4.11100970       0.00000000 
